# xmcd
#
# Track frame offsets: 
#        150
#        24395
#        47099
#        65423
#        84147
#        102860
#        122776
#        135833
#        158519
#        174925
#        190960
#        216137
#        231446
#        254230
#        284307
#
# Disc length: 3974 seconds
#
# Revision: 2
# Processed by: cddbd v1.5.2PL0 Copyright (c) Steve Scherf et al.
# Submitted via: ExactAudioCopy v0.95a4
#
DISCID=c80f840f
DTITLE=Jeff Healey - Adventures In Jazzland
DYEAR=2006
DGENRE=Jazz
TTITLE0=Bugle Call Rag
TTITLE1=My Honey's Lovin' Arms
TTITLE2=Emaline
TTITLE3=I Never Knew What A Gal Could Do
TTITLE4=If I Had You
TTITLE5=Three Little Words
TTITLE6=My Blackbirds Are Bluebirds Now
TTITLE7=Someday Sweetheart
TTITLE8=Keep Smiling At Trouble
TTITLE9=Mine All Mine
TTITLE10=You're Driving Me Crazy
TTITLE11=Poor Butterfly
TTITLE12=You Brought A New Kind Of Love To Me
TTITLE13=Indiana
TTITLE14=Little Buttercup
EXTD=Year: 2006\n\n\n             \n                               Ori
EXTD=ginal Recording in 2004 - reissued in 2006 on Stony Plain\n\n    
EXTD=                                     ( www.stonyplainre
EXTD=cords.com ]\n\n\n\n                                              
EXTD=   www.jeffhealey.com\n\n\n                            
EXTD=                 www.jeffhealeyband.com
EXTT0=
EXTT1=
EXTT2=
EXTT3=
EXTT4=
EXTT5=
EXTT6=
EXTT7=
EXTT8=
EXTT9=
EXTT10=
EXTT11=
EXTT12=
EXTT13=
EXTT14=
PLAYORDER=
